<svg xmlns="http://www.w3.org/2000/svg" xmlns:xlink="http://www.w3.org/1999/xlink" width="500" zoomAndPan="magnify" viewBox="0 0 375 374.999991" height="500" preserveAspectRatio="xMidYMid meet" version="1.0"><defs><g/><clipPath id="9567369f10"><path d="M 14.410156 14.410156 L 360.582031 14.410156 L 360.582031 360.582031 L 14.410156 360.582031 Z M 14.410156 14.410156 " clip-rule="nonzero"/></clipPath><clipPath id="46202b9ca6"><path d="M 187.496094 14.410156 C 91.902344 14.410156 14.410156 91.902344 14.410156 187.496094 C 14.410156 283.089844 91.902344 360.582031 187.496094 360.582031 C 283.089844 360.582031 360.582031 283.089844 360.582031 187.496094 C 360.582031 91.902344 283.089844 14.410156 187.496094 14.410156 Z M 187.496094 14.410156 " clip-rule="nonzero"/></clipPath><clipPath id="23a303ad9d"><path d="M 115.875 158 L 215 158 L 215 262 L 115.875 262 Z M 115.875 158 " clip-rule="nonzero"/></clipPath><clipPath id="bb08f26e00"><path d="M 175 112.5 L 246 112.5 L 246 162 L 175 162 Z M 175 112.5 " clip-rule="nonzero"/></clipPath><clipPath id="fe6c48dfc1"><path d="M 220 165 L 259.125 165 L 259.125 214 L 220 214 Z M 220 165 " clip-rule="nonzero"/></clipPath><clipPath id="a134fe8a01"><path d="M 32.335938 182.105469 L 43.125 182.105469 L 43.125 192.894531 L 32.335938 192.894531 Z M 32.335938 182.105469 " clip-rule="nonzero"/></clipPath><clipPath id="5c5d0c2aa1"><path d="M 37.730469 182.105469 C 34.75 182.105469 32.335938 184.519531 32.335938 187.5 C 32.335938 190.480469 34.75 192.894531 37.730469 192.894531 C 40.710938 192.894531 43.125 190.480469 43.125 187.5 C 43.125 184.519531 40.710938 182.105469 37.730469 182.105469 Z M 37.730469 182.105469 " clip-rule="nonzero"/></clipPath><clipPath id="640c89332c"><path d="M 0.335938 0.105469 L 11.125 0.105469 L 11.125 10.894531 L 0.335938 10.894531 Z M 0.335938 0.105469 " clip-rule="nonzero"/></clipPath><clipPath id="8321bc34da"><path d="M 5.730469 0.105469 C 2.75 0.105469 0.335938 2.519531 0.335938 5.5 C 0.335938 8.480469 2.75 10.894531 5.730469 10.894531 C 8.710938 10.894531 11.125 8.480469 11.125 5.5 C 11.125 2.519531 8.710938 0.105469 5.730469 0.105469 Z M 5.730469 0.105469 " clip-rule="nonzero"/></clipPath><clipPath id="55611ff74a"><rect x="0" width="12" y="0" height="11"/></clipPath><clipPath id="858cd2a4a1"><path d="M 332.105469 182.105469 L 342.894531 182.105469 L 342.894531 192.894531 L 332.105469 192.894531 Z M 332.105469 182.105469 " clip-rule="nonzero"/></clipPath><clipPath id="b8d5da54af"><path d="M 337.5 182.105469 C 334.519531 182.105469 332.105469 184.519531 332.105469 187.5 C 332.105469 190.480469 334.519531 192.894531 337.5 192.894531 C 340.480469 192.894531 342.894531 190.480469 342.894531 187.5 C 342.894531 184.519531 340.480469 182.105469 337.5 182.105469 Z M 337.5 182.105469 " clip-rule="nonzero"/></clipPath><clipPath id="e740cf4de1"><path d="M 0.105469 0.105469 L 10.894531 0.105469 L 10.894531 10.894531 L 0.105469 10.894531 Z M 0.105469 0.105469 " clip-rule="nonzero"/></clipPath><clipPath id="adc506bdc0"><path d="M 5.5 0.105469 C 2.519531 0.105469 0.105469 2.519531 0.105469 5.5 C 0.105469 8.480469 2.519531 10.894531 5.5 10.894531 C 8.480469 10.894531 10.894531 8.480469 10.894531 5.5 C 10.894531 2.519531 8.480469 0.105469 5.5 0.105469 Z M 5.5 0.105469 " clip-rule="nonzero"/></clipPath><clipPath id="11417aa0cc"><rect x="0" width="11" y="0" height="11"/></clipPath><clipPath id="e4d3a5b178"><path d="M 32.105469 176.710938 L 42.894531 176.710938 L 42.894531 187.5 L 32.105469 187.5 Z M 32.105469 176.710938 " clip-rule="nonzero"/></clipPath><clipPath id="c8f8b45cc9"><path d="M 37.5 176.710938 C 34.519531 176.710938 32.105469 179.125 32.105469 182.105469 C 32.105469 185.085938 34.519531 187.5 37.5 187.5 C 40.480469 187.5 42.894531 185.085938 42.894531 182.105469 C 42.894531 179.125 40.480469 176.710938 37.5 176.710938 Z M 37.5 176.710938 " clip-rule="nonzero"/></clipPath><clipPath id="2736d6098c"><path d="M 0.105469 0.710938 L 10.894531 0.710938 L 10.894531 11.5 L 0.105469 11.5 Z M 0.105469 0.710938 " clip-rule="nonzero"/></clipPath><clipPath id="2a81d24b29"><path d="M 5.5 0.710938 C 2.519531 0.710938 0.105469 3.125 0.105469 6.105469 C 0.105469 9.085938 2.519531 11.5 5.5 11.5 C 8.480469 11.5 10.894531 9.085938 10.894531 6.105469 C 10.894531 3.125 8.480469 0.710938 5.5 0.710938 Z M 5.5 0.710938 " clip-rule="nonzero"/></clipPath><clipPath id="ba63587287"><rect x="0" width="11" y="0" height="12"/></clipPath></defs><g clip-path="url(#9567369f10)"><g clip-path="url(#46202b9ca6)"><path stroke-linecap="butt" transform="matrix(0.75, 0, 0, 0.75, 14.410241, 14.410236)" fill="none" stroke-linejoin="miter" d="M 230.781152 -0.000106992 C 103.32281 -0.000106992 -0.000112992 103.322816 -0.000112992 230.781158 C -0.000112992 358.2395 103.32281 461.562423 230.781152 461.562423 C 358.239494 461.562423 461.562417 358.2395 461.562417 230.781158 C 461.562417 103.322816 358.239494 -0.000106992 230.781152 -0.000106992 Z M 230.781152 -0.000106992 " stroke="#000000" stroke-width="2" stroke-opacity="1" stroke-miterlimit="4"/></g></g><g clip-path="url(#23a303ad9d)"><path fill="#000000" d="M 151.578125 261.394531 L 179.171875 261.394531 C 179.199219 261.394531 179.21875 261.382812 179.246094 261.378906 C 198.835938 261.304688 214.753906 238.304688 214.753906 210.039062 C 214.753906 181.777344 198.835938 158.777344 179.246094 158.699219 C 179.21875 158.699219 179.199219 158.6875 179.171875 158.6875 L 151.578125 158.6875 C 131.953125 158.6875 115.988281 181.722656 115.988281 210.039062 C 115.988281 238.359375 131.953125 261.394531 151.578125 261.394531 Z M 166.4375 162.089844 C 153.066406 169.488281 143.542969 188.183594 143.542969 210.039062 C 143.542969 231.894531 153.066406 250.59375 166.4375 257.988281 L 164.703125 257.988281 C 146.957031 257.988281 132.519531 236.480469 132.519531 210.039062 C 132.519531 183.601562 146.957031 162.089844 164.703125 162.089844 Z M 211.347656 210.039062 C 211.347656 236.472656 196.902344 257.980469 179.148438 257.980469 C 161.394531 257.980469 146.949219 236.472656 146.949219 210.039062 C 146.949219 183.605469 161.394531 162.101562 179.148438 162.101562 C 196.902344 162.101562 211.347656 183.605469 211.347656 210.039062 Z M 151.578125 162.089844 L 151.980469 162.089844 C 138.625 169.496094 129.117188 188.191406 129.117188 210.039062 C 129.117188 231.890625 138.625 250.585938 151.980469 257.988281 L 151.578125 257.988281 C 133.832031 257.988281 119.394531 236.480469 119.394531 210.039062 C 119.394531 183.601562 133.832031 162.089844 151.578125 162.089844 Z M 151.578125 162.089844 " fill-opacity="1" fill-rule="nonzero"/></g><path fill="#000000" d="M 152.570312 210.039062 C 152.570312 227.640625 161.730469 250.308594 179.148438 250.308594 C 196.546875 250.308594 205.722656 227.675781 205.722656 210.039062 C 205.722656 192.441406 196.566406 169.769531 179.148438 169.769531 C 161.75 169.769531 152.570312 192.398438 152.570312 210.039062 Z M 202.265625 208.339844 L 187.304688 208.339844 C 187.09375 206.347656 186.519531 204.558594 185.671875 203.066406 L 196.675781 186.003906 C 199.964844 192.058594 202.019531 199.820312 202.265625 208.339844 Z M 196.675781 234.078125 L 185.671875 217.015625 C 186.519531 215.519531 187.09375 213.730469 187.304688 211.742188 L 202.265625 211.742188 C 202.019531 220.257812 199.964844 228.023438 196.675781 234.078125 Z M 156.03125 211.742188 L 170.992188 211.742188 C 171.203125 213.730469 171.773438 215.519531 172.621094 217.015625 L 161.617188 234.078125 C 158.332031 228.023438 156.277344 220.257812 156.03125 211.742188 Z M 161.617188 186.003906 L 172.625 203.066406 C 171.773438 204.558594 171.203125 206.347656 170.992188 208.339844 L 156.03125 208.339844 C 156.277344 199.820312 158.332031 192.058594 161.617188 186.003906 Z M 177.445312 173.3125 L 177.445312 198.941406 C 176.523438 199.195312 175.679688 199.6875 174.902344 200.316406 L 163.597656 182.789062 C 167.320312 177.410156 172.128906 173.933594 177.445312 173.3125 Z M 163.597656 237.292969 L 174.902344 219.765625 C 175.679688 220.390625 176.523438 220.886719 177.445312 221.140625 L 177.445312 246.765625 C 172.128906 246.148438 167.320312 242.671875 163.597656 237.292969 Z M 180.851562 246.765625 L 180.851562 221.140625 C 181.773438 220.886719 182.617188 220.390625 183.394531 219.765625 L 194.699219 237.292969 C 190.976562 242.671875 186.164062 246.148438 180.851562 246.765625 Z M 194.699219 182.789062 L 183.394531 200.316406 C 182.617188 199.6875 181.773438 199.195312 180.851562 198.941406 L 180.851562 173.3125 C 186.164062 173.933594 190.976562 177.410156 194.699219 182.789062 Z M 194.699219 182.789062 " fill-opacity="1" fill-rule="nonzero"/><g clip-path="url(#bb08f26e00)"><path fill="#000000" d="M 176.921875 141.625 C 176.050781 141.707031 175.382812 142.441406 175.382812 143.320312 L 175.382812 152.515625 C 175.382812 153.394531 176.054688 154.128906 176.925781 154.210938 L 184.199219 154.890625 C 185.128906 154.96875 185.964844 154.289062 186.050781 153.351562 C 186.140625 152.417969 185.449219 151.585938 184.515625 151.5 L 178.789062 150.964844 L 178.789062 144.867188 L 184.519531 144.3125 C 185.265625 144.242188 185.875 143.691406 186.023438 142.957031 C 186.664062 139.800781 187.914062 136.792969 189.742188 134.023438 C 190.152344 133.394531 190.109375 132.570312 189.628906 131.996094 L 185.933594 127.554688 L 190.257812 123.242188 L 194.683594 126.921875 C 195.261719 127.398438 196.089844 127.445312 196.714844 127.027344 C 199.4375 125.210938 202.449219 123.964844 205.664062 123.316406 C 206.402344 123.167969 206.953125 122.554688 207.023438 121.804688 L 207.558594 116.101562 L 213.675781 116.101562 L 214.210938 121.804688 C 214.28125 122.554688 214.832031 123.167969 215.570312 123.316406 C 218.785156 123.964844 221.792969 125.210938 224.519531 127.027344 C 225.144531 127.445312 225.96875 127.398438 226.550781 126.921875 L 230.972656 123.246094 L 235.277344 127.554688 L 231.601562 131.996094 C 231.125 132.578125 231.078125 133.398438 231.488281 134.023438 C 233.316406 136.792969 234.566406 139.800781 235.207031 142.957031 C 235.355469 143.691406 235.96875 144.242188 236.714844 144.3125 L 242.441406 144.867188 L 242.441406 150.964844 L 236.71875 151.5 C 235.96875 151.570312 235.351562 152.125 235.207031 152.863281 C 234.753906 155.144531 233.980469 157.347656 232.917969 159.40625 C 232.484375 160.242188 232.8125 161.269531 233.644531 161.703125 C 234.492188 162.136719 235.511719 161.800781 235.941406 160.972656 C 236.957031 159.003906 237.738281 156.925781 238.269531 154.773438 L 244.304688 154.210938 C 245.179688 154.128906 245.847656 153.394531 245.847656 152.515625 L 245.847656 143.320312 C 245.847656 142.441406 245.183594 141.707031 244.308594 141.625 L 238.265625 141.042969 C 237.582031 138.308594 236.488281 135.6875 235.007812 133.21875 L 238.890625 128.53125 C 239.449219 127.851562 239.402344 126.859375 238.78125 126.242188 L 232.28125 119.738281 C 231.660156 119.121094 230.667969 119.074219 229.992188 119.632812 L 225.328125 123.507812 C 222.886719 122.035156 220.257812 120.945312 217.484375 120.257812 L 216.921875 114.238281 C 216.839844 113.367188 216.105469 112.695312 215.226562 112.695312 L 206.007812 112.695312 C 205.128906 112.695312 204.394531 113.367188 204.3125 114.238281 L 203.75 120.257812 C 200.976562 120.945312 198.347656 122.035156 195.90625 123.507812 L 191.242188 119.632812 C 190.570312 119.078125 189.578125 119.113281 188.953125 119.738281 L 182.429688 126.238281 C 181.804688 126.859375 181.757812 127.855469 182.324219 128.53125 L 186.222656 133.222656 C 184.742188 135.6875 183.652344 138.308594 182.96875 141.042969 Z M 176.921875 141.625 " fill-opacity="1" fill-rule="nonzero"/></g><path fill="#000000" d="M 198.132812 147.914062 C 198.132812 154.796875 203.730469 160.398438 210.617188 160.398438 C 217.5 160.398438 223.097656 154.796875 223.097656 147.914062 C 223.097656 141.03125 217.5 135.433594 210.617188 135.433594 C 203.730469 135.433594 198.132812 141.03125 198.132812 147.914062 Z M 198.132812 147.914062 " fill-opacity="1" fill-rule="nonzero"/><path fill="#000000" d="M 239.957031 191.539062 C 239.957031 191.539062 239.953125 191.539062 239.953125 191.539062 C 237.972656 191.539062 236.367188 193.152344 236.367188 195.132812 C 236.367188 197.109375 237.980469 198.71875 239.957031 198.71875 C 239.957031 198.71875 239.960938 198.71875 239.960938 198.71875 C 241.964844 198.714844 243.550781 197.089844 243.546875 195.125 C 243.546875 193.148438 241.949219 191.539062 239.957031 191.539062 Z M 239.957031 191.539062 " fill-opacity="1" fill-rule="nonzero"/><path fill="#000000" d="M 256.027344 253.769531 L 256.027344 240.152344 C 256.027344 237.261719 253.671875 234.910156 250.78125 234.910156 L 246.058594 234.910156 L 246.03125 214.640625 C 246.03125 213.699219 245.269531 212.9375 244.328125 212.9375 C 243.386719 212.941406 242.625 213.703125 242.628906 214.644531 L 242.652344 234.910156 L 237.347656 234.910156 L 237.320312 214.648438 C 237.320312 213.707031 236.558594 212.945312 235.621094 212.945312 C 235.617188 212.945312 235.617188 212.945312 235.617188 212.945312 C 234.675781 212.949219 233.914062 213.710938 233.917969 214.652344 L 233.941406 234.910156 L 229.242188 234.910156 C 226.351562 234.910156 223.996094 237.261719 223.996094 240.152344 L 223.996094 253.769531 C 223.996094 256.660156 226.351562 259.015625 229.242188 259.015625 L 233.191406 259.015625 C 233.597656 259.015625 233.980469 259.140625 234.261719 259.371094 C 237.6875 262.144531 242.523438 261.988281 245.746094 259.375 C 246.03125 259.140625 246.410156 259.015625 246.820312 259.015625 L 250.78125 259.015625 C 253.671875 259.015625 256.027344 256.660156 256.027344 253.769531 Z M 252.621094 253.769531 C 252.621094 254.785156 251.796875 255.609375 250.78125 255.609375 L 246.820312 255.609375 C 245.632812 255.609375 244.488281 256.007812 243.597656 256.730469 C 241.609375 258.34375 238.574219 258.480469 236.410156 256.726562 C 235.523438 256.003906 234.378906 255.609375 233.191406 255.609375 L 229.242188 255.609375 C 228.226562 255.609375 227.402344 254.785156 227.402344 253.769531 L 227.402344 240.152344 C 227.402344 239.140625 228.226562 238.3125 229.242188 238.3125 C 231.929688 238.3125 251.011719 238.3125 250.78125 238.3125 C 251.796875 238.3125 252.621094 239.140625 252.621094 240.152344 Z M 252.621094 253.769531 " fill-opacity="1" fill-rule="nonzero"/><g clip-path="url(#fe6c48dfc1)"><path fill="#000000" d="M 258.605469 171.4375 L 258.601562 168.410156 C 258.597656 166.644531 257.15625 165.203125 255.382812 165.203125 L 224.46875 165.234375 C 222.691406 165.234375 221.253906 166.675781 221.257812 168.453125 L 221.261719 171.476562 C 221.261719 173.246094 222.703125 174.6875 224.476562 174.6875 L 224.941406 174.6875 C 224.867188 175.011719 224.820312 175.34375 224.820312 175.6875 L 224.820312 176.324219 C 224.820312 177.320312 225.167969 178.257812 225.773438 179.027344 C 225.167969 179.800781 224.824219 180.738281 224.824219 181.730469 L 224.824219 182.371094 C 224.828125 182.734375 224.882812 183.078125 224.964844 183.417969 C 222.566406 183.644531 220.679688 185.648438 220.683594 188.101562 L 220.707031 209.21875 C 220.707031 211.824219 222.828125 213.941406 225.429688 213.941406 C 225.433594 213.941406 225.433594 213.941406 225.4375 213.941406 L 228.964844 213.9375 C 231.101562 213.929688 232.933594 212.515625 233.519531 210.414062 C 234.324219 207.535156 236.976562 205.523438 239.96875 205.519531 C 239.972656 205.519531 239.972656 205.519531 239.976562 205.519531 C 242.964844 205.519531 245.617188 207.527344 246.425781 210.402344 C 247.011719 212.46875 248.882812 213.910156 250.980469 213.910156 C 250.984375 213.910156 250.988281 213.910156 250.988281 213.910156 L 254.519531 213.910156 C 257.125 213.90625 259.242188 211.785156 259.238281 209.179688 L 259.214844 188.0625 C 259.214844 185.707031 257.46875 183.613281 254.921875 183.382812 C 255.003906 183.046875 255.0625 182.699219 255.0625 182.335938 L 255.058594 181.699219 C 255.058594 180.703125 254.710938 179.769531 254.101562 178.996094 C 254.691406 178.246094 255.054688 177.316406 255.054688 176.292969 L 255.054688 175.65625 C 255.054688 175.308594 255.003906 174.976562 254.925781 174.652344 L 255.394531 174.652344 C 257.164062 174.652344 258.605469 173.214844 258.605469 171.4375 Z M 250.652344 180.707031 C 251.199219 180.707031 251.65625 181.144531 251.65625 181.707031 L 251.65625 182.339844 C 251.65625 182.894531 251.207031 183.34375 250.65625 183.34375 C 250.425781 183.34375 228.074219 183.371094 229.234375 183.367188 C 228.828125 183.433594 228.230469 182.996094 228.230469 182.367188 L 228.230469 181.730469 C 228.230469 181.167969 228.6875 180.726562 229.230469 180.726562 Z M 255.8125 188.066406 L 255.832031 209.183594 C 255.832031 209.910156 255.242188 210.503906 254.515625 210.503906 L 250.988281 210.507812 C 250.984375 210.507812 250.984375 210.507812 250.984375 210.507812 C 250.390625 210.507812 249.878906 210.089844 249.703125 209.476562 C 248.484375 205.140625 244.484375 202.113281 239.976562 202.113281 C 239.972656 202.113281 239.96875 202.113281 239.964844 202.113281 C 235.453125 202.121094 231.453125 205.15625 230.242188 209.496094 C 230.066406 210.117188 229.554688 210.53125 228.960938 210.53125 L 225.433594 210.535156 C 225.429688 210.535156 225.429688 210.535156 225.429688 210.535156 C 224.707031 210.535156 224.109375 209.945312 224.109375 209.214844 L 224.089844 188.097656 C 224.089844 187.371094 224.679688 186.777344 225.40625 186.777344 C 254.96875 186.746094 251.851562 186.75 254.492188 186.746094 C 255.210938 186.746094 255.8125 187.328125 255.8125 188.066406 Z M 251.648438 175.660156 L 251.648438 176.296875 C 251.648438 176.847656 251.199219 177.300781 250.648438 177.300781 L 229.226562 177.320312 C 228.675781 177.320312 228.222656 176.875 228.222656 176.324219 L 228.222656 175.683594 C 228.222656 175.128906 228.667969 174.683594 229.226562 174.683594 C 229.457031 174.679688 251.777344 174.65625 250.644531 174.65625 C 251.199219 174.660156 251.648438 175.109375 251.648438 175.660156 Z M 224.664062 171.28125 L 224.660156 168.640625 L 255.199219 168.605469 L 255.253906 171.246094 C 252.488281 171.25 255.398438 171.246094 224.664062 171.28125 Z M 224.664062 171.28125 " fill-opacity="1" fill-rule="nonzero"/></g><path fill="#000000" d="M 240.011719 243.761719 C 237.59375 243.761719 235.625 245.730469 235.625 248.152344 C 235.625 250.570312 237.59375 252.539062 240.011719 252.539062 C 242.433594 252.539062 244.402344 250.570312 244.402344 248.152344 C 244.402344 245.730469 242.433594 243.761719 240.011719 243.761719 Z M 240.011719 243.761719 " fill-opacity="1" fill-rule="nonzero"/><g clip-path="url(#a134fe8a01)"><g clip-path="url(#5c5d0c2aa1)"><g transform="matrix(1, 0, 0, 1, 32, 182)"><g clip-path="url(#55611ff74a)"><g clip-path="url(#640c89332c)"><g clip-path="url(#8321bc34da)"><path fill="#ffffff" d="M 0.335938 0.105469 L 11.125 0.105469 L 11.125 10.894531 L 0.335938 10.894531 Z M 0.335938 0.105469 " fill-opacity="1" fill-rule="nonzero"/></g></g></g></g></g></g><g clip-path="url(#858cd2a4a1)"><g clip-path="url(#b8d5da54af)"><g transform="matrix(1, 0, 0, 1, 332, 182)"><g clip-path="url(#11417aa0cc)"><g clip-path="url(#e740cf4de1)"><g clip-path="url(#adc506bdc0)"><path fill="#000000" d="M 0.105469 0.105469 L 10.894531 0.105469 L 10.894531 10.894531 L 0.105469 10.894531 Z M 0.105469 0.105469 " fill-opacity="1" fill-rule="nonzero"/></g></g></g></g></g></g><g fill="#000000" fill-opacity="1"><g transform="translate(83.788202, 114.048995)"><g><path d="M -17.265625 -35.203125 C -19.285156 -38.859375 -19.96875 -42.144531 -19.3125 -45.0625 C -18.65625 -47.988281 -16.585938 -50.414062 -13.109375 -52.34375 C -9.617188 -54.257812 -6.460938 -54.71875 -3.640625 -53.71875 C -0.828125 -52.726562 1.585938 -50.40625 3.609375 -46.75 L 4.578125 -45.015625 L -2.140625 -41.3125 L -3.359375 -43.5 C -4.253906 -45.132812 -5.195312 -46.113281 -6.1875 -46.4375 C -7.175781 -46.757812 -8.226562 -46.609375 -9.34375 -45.984375 C -10.457031 -45.367188 -11.140625 -44.554688 -11.390625 -43.546875 C -11.648438 -42.535156 -11.332031 -41.210938 -10.4375 -39.578125 C -9.582031 -38.035156 -8.484375 -36.863281 -7.140625 -36.0625 C -5.796875 -35.257812 -4.316406 -34.613281 -2.703125 -34.125 C -1.085938 -33.632812 0.597656 -33.191406 2.359375 -32.796875 C 4.117188 -32.410156 5.851562 -31.875 7.5625 -31.1875 C 9.28125 -30.507812 10.925781 -29.566406 12.5 -28.359375 C 14.070312 -27.148438 15.453125 -25.472656 16.640625 -23.328125 C 18.660156 -19.671875 19.316406 -16.375 18.609375 -13.4375 C 17.898438 -10.5 15.804688 -8.066406 12.328125 -6.140625 C 8.859375 -4.222656 5.691406 -3.742188 2.828125 -4.703125 C -0.0351562 -5.671875 -2.476562 -7.984375 -4.5 -11.640625 L -6.203125 -14.734375 L 0.5 -18.453125 L 2.453125 -14.90625 C 3.347656 -13.28125 4.304688 -12.320312 5.328125 -12.03125 C 6.359375 -11.75 7.429688 -11.914062 8.546875 -12.53125 C 9.660156 -13.15625 10.367188 -13.976562 10.671875 -15 C 10.984375 -16.019531 10.691406 -17.34375 9.796875 -18.96875 C 8.941406 -20.507812 7.84375 -21.679688 6.5 -22.484375 C 5.15625 -23.285156 3.675781 -23.925781 2.0625 -24.40625 C 0.457031 -24.894531 -1.222656 -25.335938 -2.984375 -25.734375 C -4.742188 -26.140625 -6.484375 -26.675781 -8.203125 -27.34375 C -9.929688 -28.019531 -11.578125 -28.960938 -13.140625 -30.171875 C -14.703125 -31.378906 -16.078125 -33.054688 -17.265625 -35.203125 Z M -17.265625 -35.203125 "/></g></g></g><g fill="#000000" fill-opacity="1"><g transform="translate(112.401027, 99.120523)"><g><path d="M 7.171875 -11.1875 L 10.015625 -3.90625 L 2.75 -1.078125 L -0.09375 -8.359375 Z M 7.171875 -11.1875 "/></g></g></g><g fill="#000000" fill-opacity="1"><g transform="translate(129.618994, 92.297335)"><g><path d="M -11.578125 -50.234375 L 12.734375 -56.21875 L 14.484375 -49.0625 L 6.265625 -47.03125 L 16.8125 -4.125 L 8.9375 -2.203125 L -1.609375 -45.109375 L -9.828125 -43.078125 Z M -11.578125 -50.234375 "/></g></g></g><g fill="#000000" fill-opacity="1"><g transform="translate(160.168859, 85.542359)"><g><path d="M 9.828125 -8.953125 L 10.6875 -1.1875 L 2.9375 -0.328125 L 2.078125 -8.09375 Z M 9.828125 -8.953125 "/></g></g></g><g fill="#000000" fill-opacity="1"><g transform="translate(178.433861, 83.294047)"><g><path d="M 19.875 0.5625 C 19.78125 0.207031 19.691406 -0.113281 19.609375 -0.40625 C 19.523438 -0.707031 19.453125 -1.078125 19.390625 -1.515625 C 19.328125 -1.960938 19.289062 -2.53125 19.28125 -3.21875 C 19.28125 -3.90625 19.289062 -4.765625 19.3125 -5.796875 L 19.546875 -13.90625 C 19.609375 -16.3125 19.234375 -18.007812 18.421875 -19 C 17.617188 -20 16.285156 -20.523438 14.421875 -20.578125 L 11.625 -20.65625 L 11.046875 0.3125 L 2.953125 0.078125 L 4.390625 -51.453125 L 16.609375 -51.109375 C 20.816406 -50.992188 23.835938 -49.925781 25.671875 -47.90625 C 27.515625 -45.882812 28.378906 -42.882812 28.265625 -38.90625 L 28.15625 -34.859375 C 28 -29.554688 26.132812 -26.125 22.5625 -24.5625 C 24.601562 -23.664062 25.976562 -22.265625 26.6875 -20.359375 C 27.394531 -18.453125 27.707031 -16.148438 27.625 -13.453125 L 27.40625 -5.5 C 27.375 -4.21875 27.394531 -3.097656 27.46875 -2.140625 C 27.539062 -1.179688 27.753906 -0.207031 28.109375 0.78125 Z M 12.28125 -43.859375 L 11.84375 -28.03125 L 15.015625 -27.953125 C 16.535156 -27.910156 17.734375 -28.265625 18.609375 -29.015625 C 19.492188 -29.773438 19.960938 -31.1875 20.015625 -33.25 L 20.15625 -38.328125 C 20.207031 -40.203125 19.910156 -41.566406 19.265625 -42.421875 C 18.628906 -43.273438 17.601562 -43.71875 16.1875 -43.75 Z M 12.28125 -43.859375 "/></g></g></g><g fill="#000000" fill-opacity="1"><g transform="translate(212.628191, 85.119617)"><g><path d="M 11.90625 -5.921875 L 10.609375 1.78125 L 2.90625 0.484375 L 4.203125 -7.21875 Z M 11.90625 -5.921875 "/></g></g></g><g fill="#000000" fill-opacity="1"><g transform="translate(231.347103, 88.522225)"><g><path d="M 16.4375 -48.9375 L 24.25 -46.8125 L 10.65625 2.90625 L 2.84375 0.78125 Z M 16.4375 -48.9375 "/></g></g></g><g fill="#000000" fill-opacity="1"><g transform="translate(249.909379, 93.880213)"><g><path d="M 12.84375 -3.4375 L 10.03125 3.859375 L 2.75 1.0625 L 5.5625 -6.234375 Z M 12.84375 -3.4375 "/></g></g></g><g fill="#000000" fill-opacity="1"><g transform="translate(267.188155, 100.341064)"><g><path d="M 32.4375 -4.109375 L 29.140625 1.890625 C 27.117188 5.546875 24.675781 7.863281 21.8125 8.84375 C 18.957031 9.820312 15.785156 9.351562 12.296875 7.4375 C 8.816406 5.519531 6.71875 3.085938 6 0.140625 C 5.289062 -2.796875 5.945312 -6.09375 7.96875 -9.75 L 20.875 -33.234375 C 22.882812 -36.890625 25.320312 -39.203125 28.1875 -40.171875 C 31.050781 -41.148438 34.222656 -40.679688 37.703125 -38.765625 C 41.191406 -36.847656 43.289062 -34.421875 44 -31.484375 C 44.707031 -28.546875 44.054688 -25.25 42.046875 -21.59375 L 39.640625 -17.203125 L 32.921875 -20.890625 L 35.578125 -25.734375 C 36.472656 -27.359375 36.769531 -28.6875 36.46875 -29.71875 C 36.175781 -30.757812 35.472656 -31.585938 34.359375 -32.203125 C 33.242188 -32.816406 32.164062 -32.972656 31.125 -32.671875 C 30.09375 -32.367188 29.128906 -31.40625 28.234375 -29.78125 L 14.828125 -5.390625 C 13.921875 -3.753906 13.625 -2.425781 13.9375 -1.40625 C 14.25 -0.394531 14.960938 0.414062 16.078125 1.03125 C 17.191406 1.644531 18.257812 1.8125 19.28125 1.53125 C 20.300781 1.25 21.265625 0.289062 22.171875 -1.34375 L 25.71875 -7.796875 Z M 32.4375 -4.109375 "/></g></g></g><g fill="#000000" fill-opacity="1"><g transform="translate(63.493959, 272.409606)"><g><path d="M 13.1875 4.953125 L 10.71875 6.578125 C 9.21875 7.566406 7.828125 7.957031 6.546875 7.75 C 5.265625 7.550781 4.148438 6.738281 3.203125 5.3125 C 2.265625 3.882812 1.953125 2.535156 2.265625 1.265625 C 2.585938 0.00390625 3.5 -1.117188 5 -2.109375 L 14.65625 -8.46875 C 16.15625 -9.457031 17.550781 -9.847656 18.84375 -9.640625 C 20.132812 -9.441406 21.25 -8.628906 22.1875 -7.203125 C 23.132812 -5.773438 23.441406 -4.425781 23.109375 -3.15625 C 22.785156 -1.894531 21.875 -0.769531 20.375 0.21875 L 18.5625 1.40625 L 16.75 -1.34375 L 18.734375 -2.640625 C 19.410156 -3.085938 19.789062 -3.535156 19.875 -3.984375 C 19.96875 -4.441406 19.863281 -4.898438 19.5625 -5.359375 C 19.269531 -5.816406 18.894531 -6.09375 18.4375 -6.1875 C 17.988281 -6.28125 17.425781 -6.101562 16.75 -5.65625 L 6.734375 0.9375 C 6.066406 1.375 5.691406 1.816406 5.609375 2.265625 C 5.523438 2.710938 5.628906 3.164062 5.921875 3.625 C 6.222656 4.082031 6.597656 4.359375 7.046875 4.453125 C 7.492188 4.554688 8.050781 4.390625 8.71875 3.953125 L 11.375 2.203125 Z M 13.1875 4.953125 "/></g></g></g><g fill="#000000" fill-opacity="1"><g transform="translate(74.297015, 288.021061)"><g><path d="M 6.796875 0.046875 C 6.191406 0.566406 5.867188 1.054688 5.828125 1.515625 C 5.796875 1.984375 5.957031 2.425781 6.3125 2.84375 C 6.675781 3.257812 7.085938 3.476562 7.546875 3.5 C 8.015625 3.53125 8.550781 3.285156 9.15625 2.765625 L 18.21875 -5.09375 C 18.832031 -5.625 19.15625 -6.117188 19.1875 -6.578125 C 19.21875 -7.035156 19.050781 -7.472656 18.6875 -7.890625 C 18.332031 -8.304688 17.925781 -8.53125 17.46875 -8.5625 C 17.007812 -8.59375 16.472656 -8.34375 15.859375 -7.8125 Z M 13.40625 -10.3125 C 14.769531 -11.488281 16.113281 -12.050781 17.4375 -12 C 18.757812 -11.945312 19.976562 -11.273438 21.09375 -9.984375 C 22.21875 -8.691406 22.71875 -7.378906 22.59375 -6.046875 C 22.46875 -4.722656 21.722656 -3.472656 20.359375 -2.296875 L 11.625 5.28125 C 10.269531 6.445312 8.925781 7 7.59375 6.9375 C 6.269531 6.875 5.046875 6.195312 3.921875 4.90625 C 2.804688 3.613281 2.3125 2.304688 2.4375 0.984375 C 2.570312 -0.328125 3.316406 -1.566406 4.671875 -2.734375 Z M 13.40625 -10.3125 "/></g></g></g><g fill="#000000" fill-opacity="1"><g transform="translate(87.284408, 302.349054)"><g><path d="M 13.890625 -9.203125 L 3.28125 2.890625 L 0.921875 0.8125 L 15.578125 -15.890625 L 18.890625 -13 L 12.8125 -0.640625 L 21.578125 -10.640625 L 23.90625 -8.578125 L 9.25 8.125 L 6.5625 5.765625 Z M 13.890625 -9.203125 "/></g></g></g><g fill="#000000" fill-opacity="1"><g transform="translate(102.869465, 315.335156)"><g><path d="M 12.59375 -18.3125 L 21.578125 -12.328125 L 19.8125 -9.6875 L 16.78125 -11.703125 L 6.21875 4.140625 L 3.296875 2.203125 L 13.859375 -13.640625 L 10.828125 -15.671875 Z M 12.59375 -18.3125 "/></g></g></g><g fill="#000000" fill-opacity="1"><g transform="translate(118.180671, 325.069216)"><g><path d="M 7.6875 3.796875 C 7.71875 3.640625 7.738281 3.492188 7.75 3.359375 C 7.769531 3.222656 7.804688 3.066406 7.859375 2.890625 C 7.910156 2.710938 7.992188 2.488281 8.109375 2.21875 C 8.234375 1.945312 8.394531 1.609375 8.59375 1.203125 L 10.140625 -1.921875 C 10.597656 -2.859375 10.757812 -3.59375 10.625 -4.125 C 10.5 -4.664062 10.078125 -5.113281 9.359375 -5.46875 L 8.265625 -6 L 4.265625 2.109375 L 1.140625 0.5625 L 10.96875 -19.359375 L 15.703125 -17.03125 C 17.328125 -16.226562 18.320312 -15.265625 18.6875 -14.140625 C 19.050781 -13.023438 18.851562 -11.695312 18.09375 -10.15625 L 17.3125 -8.578125 C 16.300781 -6.535156 14.957031 -5.53125 13.28125 -5.5625 C 13.90625 -4.84375 14.179688 -4.046875 14.109375 -3.171875 C 14.046875 -2.296875 13.753906 -1.335938 13.234375 -0.296875 L 11.734375 2.78125 C 11.484375 3.269531 11.285156 3.707031 11.140625 4.09375 C 11.003906 4.476562 10.914062 4.898438 10.875 5.359375 Z M 12.703125 -14.96875 L 9.671875 -8.84375 L 10.90625 -8.25 C 11.488281 -7.957031 12.019531 -7.878906 12.5 -8.015625 C 12.988281 -8.160156 13.429688 -8.632812 13.828125 -9.4375 L 14.796875 -11.390625 C 15.148438 -12.109375 15.273438 -12.691406 15.171875 -13.140625 C 15.078125 -13.597656 14.753906 -13.960938 14.203125 -14.234375 Z M 12.703125 -14.96875 "/></g></g></g><g fill="#000000" fill-opacity="1"><g transform="translate(135.868883, 333.292324)"><g><path d="M 5.875 -3.40625 C 5.625 -2.644531 5.601562 -2.054688 5.8125 -1.640625 C 6.019531 -1.222656 6.378906 -0.929688 6.890625 -0.765625 C 7.410156 -0.585938 7.878906 -0.601562 8.296875 -0.8125 C 8.710938 -1.019531 9.046875 -1.503906 9.296875 -2.265625 L 13.140625 -13.640625 C 13.390625 -14.398438 13.410156 -14.984375 13.203125 -15.390625 C 12.992188 -15.804688 12.628906 -16.101562 12.109375 -16.28125 C 11.597656 -16.445312 11.132812 -16.425781 10.71875 -16.21875 C 10.300781 -16.019531 9.96875 -15.539062 9.71875 -14.78125 Z M 6.328125 -15.6875 C 6.898438 -17.394531 7.769531 -18.5625 8.9375 -19.1875 C 10.113281 -19.8125 11.507812 -19.851562 13.125 -19.3125 C 14.75 -18.757812 15.835938 -17.878906 16.390625 -16.671875 C 16.953125 -15.460938 16.945312 -14.003906 16.375 -12.296875 L 12.6875 -1.34375 C 12.113281 0.351562 11.238281 1.507812 10.0625 2.125 C 8.894531 2.75 7.5 2.785156 5.875 2.234375 C 4.257812 1.691406 3.171875 0.820312 2.609375 -0.375 C 2.054688 -1.582031 2.066406 -3.035156 2.640625 -4.734375 Z M 6.328125 -15.6875 "/></g></g></g><g fill="#000000" fill-opacity="1"><g transform="translate(154.26908, 338.98719)"><g><path d="M 5.609375 -21.53125 L 9.046875 -20.84375 L 5.296875 -2.171875 L 10.9375 -1.03125 L 10.3125 2.078125 L 1.234375 0.25 Z M 5.609375 -21.53125 "/></g></g></g><g fill="#000000" fill-opacity="1"><g transform="translate(171.49243, 342.058186)"><g><path d="M 5.71875 -12.46875 L 10.5 -12.109375 L 10.265625 -8.9375 L 5.484375 -9.296875 L 4.984375 -2.796875 L 11 -2.34375 L 10.765625 0.8125 L 1.265625 0.09375 L 2.9375 -22.0625 L 12.4375 -21.34375 L 12.203125 -18.1875 L 6.1875 -18.640625 Z M 5.71875 -12.46875 "/></g></g></g><g fill="#000000" fill-opacity="1"><g transform="translate(189.660697, 342.92089)"><g/></g></g><g fill="#000000" fill-opacity="1"><g transform="translate(201.126414, 342.479024)"><g><path d="M -1.703125 -22.1875 L 3.78125 -22.921875 C 5.53125 -23.148438 6.890625 -22.863281 7.859375 -22.0625 C 8.828125 -21.257812 9.429688 -19.960938 9.671875 -18.171875 L 11.15625 -7.046875 C 11.394531 -5.253906 11.15625 -3.835938 10.4375 -2.796875 C 9.71875 -1.765625 8.484375 -1.132812 6.734375 -0.90625 L 1.25 -0.171875 Z M 2.1875 -19.515625 L 4.296875 -3.78125 L 6.25 -4.03125 C 6.800781 -4.101562 7.210938 -4.316406 7.484375 -4.671875 C 7.753906 -5.035156 7.835938 -5.613281 7.734375 -6.40625 L 6.1875 -17.859375 C 6.082031 -18.660156 5.851562 -19.195312 5.5 -19.46875 C 5.144531 -19.738281 4.691406 -19.835938 4.140625 -19.765625 Z M 2.1875 -19.515625 "/></g></g></g><g fill="#000000" fill-opacity="1"><g transform="translate(220.55815, 339.386317)"><g><path d="M 1.234375 -13.65625 L 5.875 -14.90625 L 6.703125 -11.84375 L 2.0625 -10.59375 L 3.765625 -4.3125 L 9.59375 -5.875 L 10.421875 -2.8125 L 1.21875 -0.328125 L -4.578125 -21.78125 L 4.625 -24.265625 L 5.453125 -21.203125 L -0.375 -19.640625 Z M 1.234375 -13.65625 "/></g></g></g><g fill="#000000" fill-opacity="1"><g transform="translate(237.977201, 334.15071)"><g/></g></g><g fill="#000000" fill-opacity="1"><g transform="translate(248.609076, 329.909239)"><g><path d="M -4.328125 -22.703125 C -2.765625 -23.503906 -1.382812 -23.6875 -0.1875 -23.25 C 1 -22.8125 2 -21.785156 2.8125 -20.171875 L 4.109375 -17.59375 C 4.929688 -15.988281 5.164062 -14.578125 4.8125 -13.359375 C 4.46875 -12.140625 3.515625 -11.128906 1.953125 -10.328125 L 0.484375 -9.59375 L 4.25 -2.15625 L 1.125 -0.578125 L -8.921875 -20.390625 Z M -4.359375 -19.140625 L -0.96875 -12.4375 L 0.5 -13.171875 C 0.988281 -13.421875 1.300781 -13.742188 1.4375 -14.140625 C 1.570312 -14.546875 1.457031 -15.109375 1.09375 -15.828125 L -0.421875 -18.796875 C -0.773438 -19.503906 -1.148438 -19.921875 -1.546875 -20.046875 C -1.953125 -20.179688 -2.398438 -20.125 -2.890625 -19.875 Z M -4.359375 -19.140625 "/></g></g></g><g fill="#000000" fill-opacity="1"><g transform="translate(265.056629, 321.080511)"><g><path d="M -3.28125 -13.3125 L 0.6875 -16.015625 L 2.46875 -13.390625 L -1.5 -10.6875 L 2.15625 -5.296875 L 7.15625 -8.6875 L 8.9375 -6.0625 L 1.046875 -0.71875 L -11.4375 -19.09375 L -3.546875 -24.4375 L -1.765625 -21.8125 L -6.765625 -18.421875 Z M -3.28125 -13.3125 "/></g></g></g><g fill="#000000" fill-opacity="1"><g transform="translate(280.033739, 310.40977)"><g><path d="M 4.546875 0.15625 L 6.0625 -1.1875 L 6.28125 -0.953125 C 6.4375 -0.765625 6.585938 -0.691406 6.734375 -0.734375 C 6.890625 -0.773438 7.03125 -0.851562 7.15625 -0.96875 C 7.570312 -1.332031 7.597656 -1.722656 7.234375 -2.140625 C 6.835938 -2.578125 6.351562 -2.539062 5.78125 -2.03125 L 5.515625 -1.796875 L 4.109375 -3.390625 C 2.921875 -2.523438 1.742188 -2.207031 0.578125 -2.4375 C -0.578125 -2.675781 -1.703125 -3.410156 -2.796875 -4.640625 L -10.46875 -13.296875 C -11.664062 -14.648438 -12.25 -15.976562 -12.21875 -17.28125 C -12.195312 -18.582031 -11.550781 -19.800781 -10.28125 -20.9375 C -8.988281 -22.070312 -7.695312 -22.566406 -6.40625 -22.421875 C -5.113281 -22.285156 -3.867188 -21.539062 -2.671875 -20.1875 L -1.234375 -18.578125 L -3.703125 -16.40625 L -5.28125 -18.1875 C -5.8125 -18.78125 -6.304688 -19.085938 -6.765625 -19.109375 C -7.234375 -19.140625 -7.675781 -18.972656 -8.09375 -18.609375 C -8.5 -18.242188 -8.710938 -17.828125 -8.734375 -17.359375 C -8.765625 -16.898438 -8.515625 -16.375 -7.984375 -15.78125 L -0.03125 -6.796875 C 0.5 -6.191406 0.992188 -5.878906 1.453125 -5.859375 C 1.910156 -5.835938 2.34375 -6.007812 2.75 -6.375 C 3.164062 -6.738281 3.390625 -7.148438 3.421875 -7.609375 C 3.453125 -8.066406 3.203125 -8.597656 2.671875 -9.203125 L 0.5625 -11.578125 L 3.03125 -13.75 L 5 -11.53125 C 6.09375 -10.300781 6.675781 -9.078125 6.75 -7.859375 C 6.820312 -6.648438 6.347656 -5.507812 5.328125 -4.4375 L 6 -3.671875 C 6.457031 -4.078125 6.925781 -4.273438 7.40625 -4.265625 C 7.894531 -4.265625 8.320312 -4.054688 8.6875 -3.640625 C 9.320312 -2.921875 9.554688 -2.222656 9.390625 -1.546875 C 9.222656 -0.878906 8.847656 -0.285156 8.265625 0.234375 C 7.722656 0.710938 7.125 1 6.46875 1.09375 C 5.820312 1.1875 5.253906 0.953125 4.765625 0.390625 Z M 4.546875 0.15625 "/></g></g></g><g fill="#000000" fill-opacity="1"><g transform="translate(293.96446, 297.497023)"><g><path d="M 8.21875 -9.515625 L 5.921875 -6.84375 L 2.484375 -9.03125 L -0.328125 -5.78125 L 2.328125 -2.6875 L 0.21875 -0.265625 L -14.265625 -17.484375 L -10.921875 -21.359375 Z M -2.3125 -8.09375 L -0.125 -10.640625 L -9.71875 -16.703125 Z M -2.3125 -8.09375 "/></g></g></g><g fill="#000000" fill-opacity="1"><g transform="translate(306.448667, 282.326273)"><g><path d="M -13.671875 -9.953125 C -15.171875 -10.941406 -16.085938 -12.054688 -16.421875 -13.296875 C -16.765625 -14.546875 -16.460938 -15.890625 -15.515625 -17.328125 C -14.578125 -18.765625 -13.46875 -19.570312 -12.1875 -19.75 C -10.914062 -19.9375 -9.53125 -19.535156 -8.03125 -18.546875 L -7.3125 -18.078125 L -9.125 -15.328125 L -10.015625 -15.921875 C -10.691406 -16.359375 -11.25 -16.539062 -11.6875 -16.46875 C -12.125 -16.394531 -12.492188 -16.125 -12.796875 -15.65625 C -13.097656 -15.195312 -13.195312 -14.75 -13.09375 -14.3125 C -12.988281 -13.875 -12.597656 -13.4375 -11.921875 -13 C -11.285156 -12.582031 -10.632812 -12.351562 -9.96875 -12.3125 C -9.300781 -12.28125 -8.609375 -12.332031 -7.890625 -12.46875 C -7.179688 -12.613281 -6.445312 -12.785156 -5.6875 -12.984375 C -4.9375 -13.191406 -4.164062 -13.335938 -3.375 -13.421875 C -2.582031 -13.515625 -1.765625 -13.484375 -0.921875 -13.328125 C -0.0859375 -13.179688 0.769531 -12.816406 1.65625 -12.234375 C 3.15625 -11.253906 4.066406 -10.132812 4.390625 -8.875 C 4.710938 -7.613281 4.40625 -6.265625 3.46875 -4.828125 C 2.519531 -3.390625 1.40625 -2.566406 0.125 -2.359375 C -1.15625 -2.160156 -2.546875 -2.550781 -4.046875 -3.53125 L -5.328125 -4.375 L -3.515625 -7.140625 L -2.046875 -6.1875 C -1.378906 -5.738281 -0.820312 -5.5625 -0.375 -5.65625 C 0.0625 -5.757812 0.429688 -6.046875 0.734375 -6.515625 C 1.035156 -6.972656 1.144531 -7.425781 1.0625 -7.875 C 0.976562 -8.320312 0.601562 -8.769531 -0.0625 -9.21875 C -0.695312 -9.632812 -1.351562 -9.859375 -2.03125 -9.890625 C -2.707031 -9.921875 -3.398438 -9.863281 -4.109375 -9.71875 C -4.828125 -9.582031 -5.5625 -9.410156 -6.3125 -9.203125 C -7.0625 -9.003906 -7.832031 -8.863281 -8.625 -8.78125 C -9.414062 -8.695312 -10.226562 -8.722656 -11.0625 -8.859375 C -11.90625 -9.003906 -12.773438 -9.367188 -13.671875 -9.953125 Z M -13.671875 -9.953125 "/></g></g></g><g clip-path="url(#e4d3a5b178)"><g clip-path="url(#c8f8b45cc9)"><g transform="matrix(1, 0, 0, 1, 32, 176)"><g clip-path="url(#ba63587287)"><g clip-path="url(#2736d6098c)"><g clip-path="url(#2a81d24b29)"><path fill="#000000" d="M 0.105469 0.710938 L 10.894531 0.710938 L 10.894531 11.5 L 0.105469 11.5 Z M 0.105469 0.710938 " fill-opacity="1" fill-rule="nonzero"/></g></g></g></g></g></g></svg>