<svg xmlns="http://www.w3.org/2000/svg" xmlns:xlink="http://www.w3.org/1999/xlink" width="500" zoomAndPan="magnify" viewBox="0 0 375 374.999991" height="500" preserveAspectRatio="xMidYMid meet" version="1.0"><defs><g/><clipPath id="2714ddfb0d"><path d="M 14.410156 14.410156 L 360.582031 14.410156 L 360.582031 360.582031 L 14.410156 360.582031 Z M 14.410156 14.410156 " clip-rule="nonzero"/></clipPath><clipPath id="e82d5cb2ac"><path d="M 187.496094 14.410156 C 91.902344 14.410156 14.410156 91.902344 14.410156 187.496094 C 14.410156 283.089844 91.902344 360.582031 187.496094 360.582031 C 283.089844 360.582031 360.582031 283.089844 360.582031 187.496094 C 360.582031 91.902344 283.089844 14.410156 187.496094 14.410156 Z M 187.496094 14.410156 " clip-rule="nonzero"/></clipPath><clipPath id="ae21365e51"><path d="M 115.875 164 L 215 164 L 215 267 L 115.875 267 Z M 115.875 164 " clip-rule="nonzero"/></clipPath><clipPath id="5364adf181"><path d="M 220 170 L 259.125 170 L 259.125 220 L 220 220 Z M 220 170 " clip-rule="nonzero"/></clipPath><clipPath id="4fc98878ac"><path d="M 32.335938 182.105469 L 43.125 182.105469 L 43.125 192.894531 L 32.335938 192.894531 Z M 32.335938 182.105469 " clip-rule="nonzero"/></clipPath><clipPath id="de8246ad96"><path d="M 37.730469 182.105469 C 34.75 182.105469 32.335938 184.519531 32.335938 187.5 C 32.335938 190.480469 34.75 192.894531 37.730469 192.894531 C 40.710938 192.894531 43.125 190.480469 43.125 187.5 C 43.125 184.519531 40.710938 182.105469 37.730469 182.105469 Z M 37.730469 182.105469 " clip-rule="nonzero"/></clipPath><clipPath id="c5ea5aabd3"><path d="M 0.335938 0.105469 L 11.125 0.105469 L 11.125 10.894531 L 0.335938 10.894531 Z M 0.335938 0.105469 " clip-rule="nonzero"/></clipPath><clipPath id="271e5a7c9a"><path d="M 5.730469 0.105469 C 2.75 0.105469 0.335938 2.519531 0.335938 5.5 C 0.335938 8.480469 2.75 10.894531 5.730469 10.894531 C 8.710938 10.894531 11.125 8.480469 11.125 5.5 C 11.125 2.519531 8.710938 0.105469 5.730469 0.105469 Z M 5.730469 0.105469 " clip-rule="nonzero"/></clipPath><clipPath id="bbcb51a4fd"><rect x="0" width="12" y="0" height="11"/></clipPath><clipPath id="b44400aaca"><path d="M 332.105469 182.105469 L 342.894531 182.105469 L 342.894531 192.894531 L 332.105469 192.894531 Z M 332.105469 182.105469 " clip-rule="nonzero"/></clipPath><clipPath id="9bac7db4c2"><path d="M 337.5 182.105469 C 334.519531 182.105469 332.105469 184.519531 332.105469 187.5 C 332.105469 190.480469 334.519531 192.894531 337.5 192.894531 C 340.480469 192.894531 342.894531 190.480469 342.894531 187.5 C 342.894531 184.519531 340.480469 182.105469 337.5 182.105469 Z M 337.5 182.105469 " clip-rule="nonzero"/></clipPath><clipPath id="77a285ee4e"><path d="M 0.105469 0.105469 L 10.894531 0.105469 L 10.894531 10.894531 L 0.105469 10.894531 Z M 0.105469 0.105469 " clip-rule="nonzero"/></clipPath><clipPath id="6994292458"><path d="M 5.5 0.105469 C 2.519531 0.105469 0.105469 2.519531 0.105469 5.5 C 0.105469 8.480469 2.519531 10.894531 5.5 10.894531 C 8.480469 10.894531 10.894531 8.480469 10.894531 5.5 C 10.894531 2.519531 8.480469 0.105469 5.5 0.105469 Z M 5.5 0.105469 " clip-rule="nonzero"/></clipPath><clipPath id="f6894422a2"><rect x="0" width="11" y="0" height="11"/></clipPath></defs><g clip-path="url(#2714ddfb0d)"><g clip-path="url(#e82d5cb2ac)"><path stroke-linecap="butt" transform="matrix(0.75, 0, 0, 0.75, 14.410241, 14.410236)" fill="none" stroke-linejoin="miter" d="M 230.781152 -0.000106992 C 103.32281 -0.000106992 -0.000112992 103.322816 -0.000112992 230.781158 C -0.000112992 358.2395 103.32281 461.562423 230.781152 461.562423 C 358.239494 461.562423 461.562417 358.2395 461.562417 230.781158 C 461.562417 103.322816 358.239494 -0.000106992 230.781152 -0.000106992 Z M 230.781152 -0.000106992 " stroke="#ffffff" stroke-width="2" stroke-opacity="1" stroke-miterlimit="4"/></g></g><g clip-path="url(#ae21365e51)"><path fill="#ffffff" d="M 151.578125 266.789062 L 179.171875 266.789062 C 179.199219 266.789062 179.21875 266.777344 179.246094 266.773438 C 198.835938 266.699219 214.753906 243.699219 214.753906 215.4375 C 214.753906 187.171875 198.835938 164.171875 179.246094 164.09375 C 179.21875 164.09375 179.199219 164.082031 179.171875 164.082031 L 151.578125 164.082031 C 131.953125 164.082031 115.988281 187.117188 115.988281 215.4375 C 115.988281 243.753906 131.953125 266.789062 151.578125 266.789062 Z M 166.4375 167.488281 C 153.066406 174.882812 143.542969 193.582031 143.542969 215.4375 C 143.542969 237.289062 153.066406 255.988281 166.4375 263.386719 L 164.703125 263.386719 C 146.957031 263.386719 132.519531 241.875 132.519531 215.4375 C 132.519531 188.996094 146.957031 167.488281 164.703125 167.488281 Z M 211.347656 215.4375 C 211.347656 241.867188 196.902344 263.375 179.148438 263.375 C 161.394531 263.375 146.949219 241.867188 146.949219 215.4375 C 146.949219 189.003906 161.394531 167.496094 179.148438 167.496094 C 196.902344 167.496094 211.347656 189.003906 211.347656 215.4375 Z M 151.578125 167.488281 L 151.980469 167.488281 C 138.625 174.890625 129.117188 193.585938 129.117188 215.4375 C 129.117188 237.285156 138.625 255.980469 151.980469 263.386719 L 151.578125 263.386719 C 133.832031 263.386719 119.394531 241.875 119.394531 215.4375 C 119.394531 188.996094 133.832031 167.488281 151.578125 167.488281 Z M 151.578125 167.488281 " fill-opacity="1" fill-rule="nonzero"/></g><path fill="#ffffff" d="M 152.570312 215.4375 C 152.570312 233.035156 161.730469 255.707031 179.148438 255.707031 C 196.546875 255.707031 205.722656 233.070312 205.722656 215.4375 C 205.722656 197.835938 196.566406 175.167969 179.148438 175.167969 C 161.75 175.167969 152.570312 197.792969 152.570312 215.4375 Z M 202.265625 213.734375 L 187.304688 213.734375 C 187.09375 211.742188 186.519531 209.957031 185.671875 208.460938 L 196.675781 191.398438 C 199.964844 197.453125 202.019531 205.21875 202.265625 213.734375 Z M 196.675781 239.472656 L 185.671875 222.410156 C 186.519531 220.914062 187.09375 219.125 187.304688 217.136719 L 202.265625 217.136719 C 202.019531 225.652344 199.964844 233.417969 196.675781 239.472656 Z M 156.03125 217.136719 L 170.992188 217.136719 C 171.203125 219.125 171.773438 220.914062 172.621094 222.410156 L 161.617188 239.472656 C 158.332031 233.417969 156.277344 225.652344 156.03125 217.136719 Z M 161.617188 191.398438 L 172.625 208.460938 C 171.773438 209.957031 171.203125 211.742188 170.992188 213.734375 L 156.03125 213.734375 C 156.277344 205.21875 158.332031 197.453125 161.617188 191.398438 Z M 177.445312 178.707031 L 177.445312 204.335938 C 176.523438 204.589844 175.679688 205.082031 174.902344 205.710938 L 163.597656 188.183594 C 167.320312 182.804688 172.128906 179.328125 177.445312 178.707031 Z M 163.597656 242.6875 L 174.902344 225.160156 C 175.679688 225.789062 176.523438 226.28125 177.445312 226.535156 L 177.445312 252.164062 C 172.128906 251.542969 167.320312 248.066406 163.597656 242.6875 Z M 180.851562 252.164062 L 180.851562 226.535156 C 181.773438 226.28125 182.617188 225.789062 183.394531 225.160156 L 194.699219 242.6875 C 190.976562 248.066406 186.164062 251.542969 180.851562 252.164062 Z M 194.699219 188.183594 L 183.394531 205.710938 C 182.617188 205.082031 181.773438 204.589844 180.851562 204.335938 L 180.851562 178.707031 C 186.164062 179.328125 190.976562 182.804688 194.699219 188.183594 Z M 194.699219 188.183594 " fill-opacity="1" fill-rule="nonzero"/><path fill="#ffffff" d="M 176.921875 147.019531 C 176.050781 147.101562 175.382812 147.835938 175.382812 148.714844 L 175.382812 157.910156 C 175.382812 158.792969 176.054688 159.523438 176.925781 159.605469 L 184.199219 160.285156 C 185.128906 160.367188 185.964844 159.683594 186.050781 158.746094 C 186.140625 157.8125 185.449219 156.980469 184.515625 156.894531 L 178.789062 156.359375 L 178.789062 150.261719 L 184.519531 149.707031 C 185.265625 149.636719 185.875 149.085938 186.023438 148.351562 C 186.664062 145.195312 187.914062 142.1875 189.742188 139.417969 C 190.152344 138.789062 190.109375 137.96875 189.628906 137.390625 L 185.933594 132.949219 L 190.257812 128.636719 L 194.683594 132.316406 C 195.261719 132.792969 196.089844 132.839844 196.714844 132.421875 C 199.4375 130.605469 202.449219 129.359375 205.664062 128.710938 C 206.402344 128.5625 206.953125 127.949219 207.023438 127.203125 L 207.558594 121.496094 L 213.675781 121.496094 L 214.210938 127.203125 C 214.28125 127.949219 214.832031 128.5625 215.570312 128.710938 C 218.785156 129.359375 221.792969 130.605469 224.519531 132.421875 C 225.144531 132.839844 225.96875 132.792969 226.550781 132.316406 L 230.972656 128.640625 L 235.277344 132.949219 L 231.601562 137.394531 C 231.125 137.972656 231.078125 138.792969 231.488281 139.417969 C 233.316406 142.1875 234.566406 145.195312 235.207031 148.355469 C 235.355469 149.085938 235.96875 149.636719 236.714844 149.707031 L 242.441406 150.261719 L 242.441406 156.359375 L 236.71875 156.894531 C 235.96875 156.964844 235.351562 157.519531 235.207031 158.257812 C 234.753906 160.539062 233.980469 162.742188 232.917969 164.800781 C 232.484375 165.636719 232.8125 166.664062 233.644531 167.097656 C 234.492188 167.53125 235.511719 167.195312 235.941406 166.367188 C 236.957031 164.398438 237.738281 162.320312 238.269531 160.171875 L 244.304688 159.605469 C 245.179688 159.523438 245.847656 158.792969 245.847656 157.910156 L 245.847656 148.714844 C 245.847656 147.835938 245.183594 147.101562 244.308594 147.019531 L 238.265625 146.4375 C 237.582031 143.703125 236.488281 141.082031 235.007812 138.613281 L 238.890625 133.925781 C 239.449219 133.246094 239.402344 132.257812 238.78125 131.636719 L 232.28125 125.136719 C 231.660156 124.515625 230.667969 124.46875 229.992188 125.027344 L 225.328125 128.902344 C 222.886719 127.429688 220.257812 126.339844 217.484375 125.652344 L 216.921875 119.632812 C 216.839844 118.761719 216.105469 118.089844 215.226562 118.089844 L 206.007812 118.089844 C 205.128906 118.089844 204.394531 118.761719 204.3125 119.632812 L 203.75 125.652344 C 200.976562 126.339844 198.347656 127.429688 195.90625 128.902344 L 191.242188 125.027344 C 190.570312 124.472656 189.578125 124.511719 188.953125 125.132812 L 182.429688 131.632812 C 181.804688 132.257812 181.757812 133.25 182.324219 133.929688 L 186.222656 138.617188 C 184.742188 141.085938 183.652344 143.703125 182.96875 146.4375 Z M 176.921875 147.019531 " fill-opacity="1" fill-rule="nonzero"/><path fill="#ffffff" d="M 198.132812 153.308594 C 198.132812 160.191406 203.730469 165.792969 210.617188 165.792969 C 217.5 165.792969 223.097656 160.191406 223.097656 153.308594 C 223.097656 146.425781 217.5 140.828125 210.617188 140.828125 C 203.730469 140.828125 198.132812 146.425781 198.132812 153.308594 Z M 198.132812 153.308594 " fill-opacity="1" fill-rule="nonzero"/><path fill="#ffffff" d="M 239.957031 196.933594 C 239.957031 196.933594 239.953125 196.933594 239.953125 196.933594 C 237.972656 196.933594 236.367188 198.546875 236.367188 200.527344 C 236.367188 202.507812 237.980469 204.113281 239.957031 204.113281 C 239.957031 204.113281 239.960938 204.113281 239.960938 204.113281 C 241.964844 204.109375 243.550781 202.484375 243.546875 200.519531 C 243.546875 198.542969 241.949219 196.933594 239.957031 196.933594 Z M 239.957031 196.933594 " fill-opacity="1" fill-rule="nonzero"/><path fill="#ffffff" d="M 256.027344 259.164062 L 256.027344 245.550781 C 256.027344 242.65625 253.671875 240.304688 250.78125 240.304688 L 246.058594 240.304688 L 246.03125 220.035156 C 246.03125 219.09375 245.269531 218.332031 244.328125 218.332031 C 243.386719 218.335938 242.625 219.097656 242.628906 220.039062 L 242.652344 240.304688 L 237.347656 240.304688 L 237.320312 220.042969 C 237.320312 219.101562 236.558594 218.34375 235.621094 218.34375 C 235.617188 218.34375 235.617188 218.34375 235.617188 218.34375 C 234.675781 218.34375 233.914062 219.105469 233.917969 220.046875 L 233.941406 240.304688 L 229.242188 240.304688 C 226.351562 240.304688 223.996094 242.65625 223.996094 245.550781 L 223.996094 259.164062 C 223.996094 262.058594 226.351562 264.410156 229.242188 264.410156 L 233.191406 264.410156 C 233.597656 264.410156 233.980469 264.535156 234.261719 264.765625 C 237.6875 267.539062 242.523438 267.382812 245.746094 264.769531 C 246.03125 264.535156 246.410156 264.410156 246.820312 264.410156 L 250.78125 264.410156 C 253.671875 264.410156 256.027344 262.058594 256.027344 259.164062 Z M 252.621094 259.164062 C 252.621094 260.179688 251.796875 261.003906 250.78125 261.003906 L 246.820312 261.003906 C 245.632812 261.003906 244.488281 261.402344 243.597656 262.125 C 241.609375 263.738281 238.574219 263.875 236.410156 262.121094 C 235.523438 261.402344 234.378906 261.003906 233.191406 261.003906 L 229.242188 261.003906 C 228.226562 261.003906 227.402344 260.179688 227.402344 259.164062 L 227.402344 245.550781 C 227.402344 244.535156 228.226562 243.710938 229.242188 243.710938 C 231.929688 243.707031 251.011719 243.707031 250.78125 243.710938 C 251.796875 243.710938 252.621094 244.535156 252.621094 245.550781 Z M 252.621094 259.164062 " fill-opacity="1" fill-rule="nonzero"/><g clip-path="url(#5364adf181)"><path fill="#ffffff" d="M 258.605469 176.832031 L 258.601562 173.808594 C 258.597656 172.039062 257.15625 170.597656 255.382812 170.597656 L 224.46875 170.628906 C 222.691406 170.628906 221.253906 172.070312 221.257812 173.847656 L 221.261719 176.871094 C 221.261719 178.640625 222.703125 180.082031 224.476562 180.082031 L 224.941406 180.082031 C 224.867188 180.40625 224.820312 180.738281 224.820312 181.082031 L 224.820312 181.71875 C 224.820312 182.714844 225.167969 183.652344 225.773438 184.421875 C 225.167969 185.195312 224.824219 186.132812 224.824219 187.125 L 224.824219 187.765625 C 224.828125 188.128906 224.882812 188.476562 224.964844 188.8125 C 222.566406 189.039062 220.679688 191.042969 220.683594 193.5 L 220.707031 214.617188 C 220.707031 217.21875 222.828125 219.335938 225.429688 219.335938 C 225.433594 219.335938 225.433594 219.335938 225.4375 219.335938 L 228.964844 219.332031 C 231.101562 219.328125 232.933594 217.910156 233.519531 215.808594 C 234.324219 212.929688 236.976562 210.917969 239.96875 210.914062 C 239.972656 210.914062 239.972656 210.914062 239.976562 210.914062 C 242.964844 210.914062 245.617188 212.921875 246.425781 215.796875 C 247.011719 217.863281 248.882812 219.304688 250.980469 219.304688 C 250.984375 219.304688 250.988281 219.304688 250.988281 219.304688 L 254.519531 219.304688 C 257.125 219.300781 259.242188 217.179688 259.238281 214.574219 L 259.214844 193.457031 C 259.214844 191.101562 257.46875 189.007812 254.921875 188.777344 C 255.003906 188.441406 255.0625 188.09375 255.0625 187.730469 L 255.058594 187.097656 C 255.058594 186.101562 254.710938 185.164062 254.101562 184.390625 C 254.691406 183.640625 255.054688 182.710938 255.054688 181.6875 L 255.054688 181.050781 C 255.054688 180.703125 255.003906 180.371094 254.925781 180.046875 L 255.394531 180.046875 C 257.164062 180.046875 258.605469 178.609375 258.605469 176.832031 Z M 250.652344 186.101562 C 251.199219 186.101562 251.65625 186.539062 251.65625 187.101562 L 251.65625 187.738281 C 251.65625 188.289062 251.207031 188.738281 250.65625 188.742188 C 250.425781 188.742188 228.074219 188.765625 229.234375 188.761719 C 228.828125 188.828125 228.230469 188.390625 228.230469 187.761719 L 228.230469 187.125 C 228.230469 186.5625 228.6875 186.121094 229.230469 186.121094 Z M 255.8125 193.460938 L 255.832031 214.578125 C 255.832031 215.304688 255.242188 215.898438 254.515625 215.898438 L 250.988281 215.902344 C 250.984375 215.902344 250.984375 215.902344 250.984375 215.902344 C 250.390625 215.902344 249.878906 215.488281 249.703125 214.871094 C 248.484375 210.535156 244.484375 207.511719 239.976562 207.511719 C 239.972656 207.511719 239.96875 207.511719 239.964844 207.511719 C 235.453125 207.515625 231.453125 210.550781 230.242188 214.890625 C 230.066406 215.511719 229.554688 215.925781 228.960938 215.925781 L 225.433594 215.929688 C 225.429688 215.929688 225.429688 215.929688 225.429688 215.929688 C 224.707031 215.929688 224.109375 215.34375 224.109375 214.609375 L 224.089844 193.492188 C 224.089844 192.765625 224.679688 192.171875 225.40625 192.171875 C 254.96875 192.140625 251.851562 192.144531 254.492188 192.140625 C 255.210938 192.140625 255.8125 192.722656 255.8125 193.460938 Z M 251.648438 181.054688 L 251.648438 181.691406 C 251.648438 182.242188 251.199219 182.695312 250.648438 182.695312 L 229.226562 182.71875 C 228.675781 182.71875 228.222656 182.269531 228.222656 181.71875 L 228.222656 181.078125 C 228.222656 180.527344 228.667969 180.078125 229.226562 180.078125 C 229.457031 180.078125 251.777344 180.050781 250.644531 180.054688 C 251.199219 180.054688 251.648438 180.503906 251.648438 181.054688 Z M 224.664062 176.675781 L 224.660156 174.035156 L 255.199219 174.003906 L 255.253906 176.644531 C 252.488281 176.644531 255.398438 176.640625 224.664062 176.675781 Z M 224.664062 176.675781 " fill-opacity="1" fill-rule="nonzero"/></g><path fill="#ffffff" d="M 240.011719 249.160156 C 237.59375 249.160156 235.625 251.128906 235.625 253.546875 C 235.625 255.96875 237.59375 257.933594 240.011719 257.933594 C 242.433594 257.933594 244.402344 255.96875 244.402344 253.546875 C 244.402344 251.128906 242.433594 249.160156 240.011719 249.160156 Z M 240.011719 249.160156 " fill-opacity="1" fill-rule="nonzero"/><g clip-path="url(#4fc98878ac)"><g clip-path="url(#de8246ad96)"><g transform="matrix(1, 0, 0, 1, 32, 182)"><g clip-path="url(#bbcb51a4fd)"><g clip-path="url(#c5ea5aabd3)"><g clip-path="url(#271e5a7c9a)"><path fill="#ffffff" d="M 0.335938 0.105469 L 11.125 0.105469 L 11.125 10.894531 L 0.335938 10.894531 Z M 0.335938 0.105469 " fill-opacity="1" fill-rule="nonzero"/></g></g></g></g></g></g><g clip-path="url(#b44400aaca)"><g clip-path="url(#9bac7db4c2)"><g transform="matrix(1, 0, 0, 1, 332, 182)"><g clip-path="url(#f6894422a2)"><g clip-path="url(#77a285ee4e)"><g clip-path="url(#6994292458)"><path fill="#ffffff" d="M 0.105469 0.105469 L 10.894531 0.105469 L 10.894531 10.894531 L 0.105469 10.894531 Z M 0.105469 0.105469 " fill-opacity="1" fill-rule="nonzero"/></g></g></g></g></g></g><g fill="#ffffff" fill-opacity="1"><g transform="translate(83.788202, 114.048995)"><g><path d="M -17.265625 -35.203125 C -19.285156 -38.859375 -19.96875 -42.144531 -19.3125 -45.0625 C -18.65625 -47.988281 -16.585938 -50.414062 -13.109375 -52.34375 C -9.617188 -54.257812 -6.460938 -54.71875 -3.640625 -53.71875 C -0.828125 -52.726562 1.585938 -50.40625 3.609375 -46.75 L 4.578125 -45.015625 L -2.140625 -41.3125 L -3.359375 -43.5 C -4.253906 -45.132812 -5.195312 -46.113281 -6.1875 -46.4375 C -7.175781 -46.757812 -8.226562 -46.609375 -9.34375 -45.984375 C -10.457031 -45.367188 -11.140625 -44.554688 -11.390625 -43.546875 C -11.648438 -42.535156 -11.332031 -41.210938 -10.4375 -39.578125 C -9.582031 -38.035156 -8.484375 -36.863281 -7.140625 -36.0625 C -5.796875 -35.257812 -4.316406 -34.613281 -2.703125 -34.125 C -1.085938 -33.632812 0.597656 -33.191406 2.359375 -32.796875 C 4.117188 -32.410156 5.851562 -31.875 7.5625 -31.1875 C 9.28125 -30.507812 10.925781 -29.566406 12.5 -28.359375 C 14.070312 -27.148438 15.453125 -25.472656 16.640625 -23.328125 C 18.660156 -19.671875 19.316406 -16.375 18.609375 -13.4375 C 17.898438 -10.5 15.804688 -8.066406 12.328125 -6.140625 C 8.859375 -4.222656 5.691406 -3.742188 2.828125 -4.703125 C -0.0351562 -5.671875 -2.476562 -7.984375 -4.5 -11.640625 L -6.203125 -14.734375 L 0.5 -18.453125 L 2.453125 -14.90625 C 3.347656 -13.28125 4.304688 -12.320312 5.328125 -12.03125 C 6.359375 -11.75 7.429688 -11.914062 8.546875 -12.53125 C 9.660156 -13.15625 10.367188 -13.976562 10.671875 -15 C 10.984375 -16.019531 10.691406 -17.34375 9.796875 -18.96875 C 8.941406 -20.507812 7.84375 -21.679688 6.5 -22.484375 C 5.15625 -23.285156 3.675781 -23.925781 2.0625 -24.40625 C 0.457031 -24.894531 -1.222656 -25.335938 -2.984375 -25.734375 C -4.742188 -26.140625 -6.484375 -26.675781 -8.203125 -27.34375 C -9.929688 -28.019531 -11.578125 -28.960938 -13.140625 -30.171875 C -14.703125 -31.378906 -16.078125 -33.054688 -17.265625 -35.203125 Z M -17.265625 -35.203125 "/></g></g></g><g fill="#ffffff" fill-opacity="1"><g transform="translate(112.401027, 99.120523)"><g><path d="M 7.171875 -11.1875 L 10.015625 -3.90625 L 2.75 -1.078125 L -0.09375 -8.359375 Z M 7.171875 -11.1875 "/></g></g></g><g fill="#ffffff" fill-opacity="1"><g transform="translate(129.618994, 92.297335)"><g><path d="M -11.578125 -50.234375 L 12.734375 -56.21875 L 14.484375 -49.0625 L 6.265625 -47.03125 L 16.8125 -4.125 L 8.9375 -2.203125 L -1.609375 -45.109375 L -9.828125 -43.078125 Z M -11.578125 -50.234375 "/></g></g></g><g fill="#ffffff" fill-opacity="1"><g transform="translate(160.168859, 85.542359)"><g><path d="M 9.828125 -8.953125 L 10.6875 -1.1875 L 2.9375 -0.328125 L 2.078125 -8.09375 Z M 9.828125 -8.953125 "/></g></g></g><g fill="#ffffff" fill-opacity="1"><g transform="translate(178.433861, 83.294047)"><g><path d="M 19.875 0.5625 C 19.78125 0.207031 19.691406 -0.113281 19.609375 -0.40625 C 19.523438 -0.707031 19.453125 -1.078125 19.390625 -1.515625 C 19.328125 -1.960938 19.289062 -2.53125 19.28125 -3.21875 C 19.28125 -3.90625 19.289062 -4.765625 19.3125 -5.796875 L 19.546875 -13.90625 C 19.609375 -16.3125 19.234375 -18.007812 18.421875 -19 C 17.617188 -20 16.285156 -20.523438 14.421875 -20.578125 L 11.625 -20.65625 L 11.046875 0.3125 L 2.953125 0.078125 L 4.390625 -51.453125 L 16.609375 -51.109375 C 20.816406 -50.992188 23.835938 -49.925781 25.671875 -47.90625 C 27.515625 -45.882812 28.378906 -42.882812 28.265625 -38.90625 L 28.15625 -34.859375 C 28 -29.554688 26.132812 -26.125 22.5625 -24.5625 C 24.601562 -23.664062 25.976562 -22.265625 26.6875 -20.359375 C 27.394531 -18.453125 27.707031 -16.148438 27.625 -13.453125 L 27.40625 -5.5 C 27.375 -4.21875 27.394531 -3.097656 27.46875 -2.140625 C 27.539062 -1.179688 27.753906 -0.207031 28.109375 0.78125 Z M 12.28125 -43.859375 L 11.84375 -28.03125 L 15.015625 -27.953125 C 16.535156 -27.910156 17.734375 -28.265625 18.609375 -29.015625 C 19.492188 -29.773438 19.960938 -31.1875 20.015625 -33.25 L 20.15625 -38.328125 C 20.207031 -40.203125 19.910156 -41.566406 19.265625 -42.421875 C 18.628906 -43.273438 17.601562 -43.71875 16.1875 -43.75 Z M 12.28125 -43.859375 "/></g></g></g><g fill="#ffffff" fill-opacity="1"><g transform="translate(212.628191, 85.119617)"><g><path d="M 11.90625 -5.921875 L 10.609375 1.78125 L 2.90625 0.484375 L 4.203125 -7.21875 Z M 11.90625 -5.921875 "/></g></g></g><g fill="#ffffff" fill-opacity="1"><g transform="translate(231.347103, 88.522225)"><g><path d="M 16.4375 -48.9375 L 24.25 -46.8125 L 10.65625 2.90625 L 2.84375 0.78125 Z M 16.4375 -48.9375 "/></g></g></g><g fill="#ffffff" fill-opacity="1"><g transform="translate(249.909379, 93.880213)"><g><path d="M 12.84375 -3.4375 L 10.03125 3.859375 L 2.75 1.0625 L 5.5625 -6.234375 Z M 12.84375 -3.4375 "/></g></g></g><g fill="#ffffff" fill-opacity="1"><g transform="translate(267.188155, 100.341064)"><g><path d="M 32.4375 -4.109375 L 29.140625 1.890625 C 27.117188 5.546875 24.675781 7.863281 21.8125 8.84375 C 18.957031 9.820312 15.785156 9.351562 12.296875 7.4375 C 8.816406 5.519531 6.71875 3.085938 6 0.140625 C 5.289062 -2.796875 5.945312 -6.09375 7.96875 -9.75 L 20.875 -33.234375 C 22.882812 -36.890625 25.320312 -39.203125 28.1875 -40.171875 C 31.050781 -41.148438 34.222656 -40.679688 37.703125 -38.765625 C 41.191406 -36.847656 43.289062 -34.421875 44 -31.484375 C 44.707031 -28.546875 44.054688 -25.25 42.046875 -21.59375 L 39.640625 -17.203125 L 32.921875 -20.890625 L 35.578125 -25.734375 C 36.472656 -27.359375 36.769531 -28.6875 36.46875 -29.71875 C 36.175781 -30.757812 35.472656 -31.585938 34.359375 -32.203125 C 33.242188 -32.816406 32.164062 -32.972656 31.125 -32.671875 C 30.09375 -32.367188 29.128906 -31.40625 28.234375 -29.78125 L 14.828125 -5.390625 C 13.921875 -3.753906 13.625 -2.425781 13.9375 -1.40625 C 14.25 -0.394531 14.960938 0.414062 16.078125 1.03125 C 17.191406 1.644531 18.257812 1.8125 19.28125 1.53125 C 20.300781 1.25 21.265625 0.289062 22.171875 -1.34375 L 25.71875 -7.796875 Z M 32.4375 -4.109375 "/></g></g></g><g fill="#ffffff" fill-opacity="1"><g transform="translate(63.493959, 272.409606)"><g><path d="M 13.1875 4.953125 L 10.71875 6.578125 C 9.21875 7.566406 7.828125 7.957031 6.546875 7.75 C 5.265625 7.550781 4.148438 6.738281 3.203125 5.3125 C 2.265625 3.882812 1.953125 2.535156 2.265625 1.265625 C 2.585938 0.00390625 3.5 -1.117188 5 -2.109375 L 14.65625 -8.46875 C 16.15625 -9.457031 17.550781 -9.847656 18.84375 -9.640625 C 20.132812 -9.441406 21.25 -8.628906 22.1875 -7.203125 C 23.132812 -5.773438 23.441406 -4.425781 23.109375 -3.15625 C 22.785156 -1.894531 21.875 -0.769531 20.375 0.21875 L 18.5625 1.40625 L 16.75 -1.34375 L 18.734375 -2.640625 C 19.410156 -3.085938 19.789062 -3.535156 19.875 -3.984375 C 19.96875 -4.441406 19.863281 -4.898438 19.5625 -5.359375 C 19.269531 -5.816406 18.894531 -6.09375 18.4375 -6.1875 C 17.988281 -6.28125 17.425781 -6.101562 16.75 -5.65625 L 6.734375 0.9375 C 6.066406 1.375 5.691406 1.816406 5.609375 2.265625 C 5.523438 2.710938 5.628906 3.164062 5.921875 3.625 C 6.222656 4.082031 6.597656 4.359375 7.046875 4.453125 C 7.492188 4.554688 8.050781 4.390625 8.71875 3.953125 L 11.375 2.203125 Z M 13.1875 4.953125 "/></g></g></g><g fill="#ffffff" fill-opacity="1"><g transform="translate(74.297015, 288.021061)"><g><path d="M 6.796875 0.046875 C 6.191406 0.566406 5.867188 1.054688 5.828125 1.515625 C 5.796875 1.984375 5.957031 2.425781 6.3125 2.84375 C 6.675781 3.257812 7.085938 3.476562 7.546875 3.5 C 8.015625 3.53125 8.550781 3.285156 9.15625 2.765625 L 18.21875 -5.09375 C 18.832031 -5.625 19.15625 -6.117188 19.1875 -6.578125 C 19.21875 -7.035156 19.050781 -7.472656 18.6875 -7.890625 C 18.332031 -8.304688 17.925781 -8.53125 17.46875 -8.5625 C 17.007812 -8.59375 16.472656 -8.34375 15.859375 -7.8125 Z M 13.40625 -10.3125 C 14.769531 -11.488281 16.113281 -12.050781 17.4375 -12 C 18.757812 -11.945312 19.976562 -11.273438 21.09375 -9.984375 C 22.21875 -8.691406 22.71875 -7.378906 22.59375 -6.046875 C 22.46875 -4.722656 21.722656 -3.472656 20.359375 -2.296875 L 11.625 5.28125 C 10.269531 6.445312 8.925781 7 7.59375 6.9375 C 6.269531 6.875 5.046875 6.195312 3.921875 4.90625 C 2.804688 3.613281 2.3125 2.304688 2.4375 0.984375 C 2.570312 -0.328125 3.316406 -1.566406 4.671875 -2.734375 Z M 13.40625 -10.3125 "/></g></g></g><g fill="#ffffff" fill-opacity="1"><g transform="translate(87.284408, 302.349054)"><g><path d="M 13.890625 -9.203125 L 3.28125 2.890625 L 0.921875 0.8125 L 15.578125 -15.890625 L 18.890625 -13 L 12.8125 -0.640625 L 21.578125 -10.640625 L 23.90625 -8.578125 L 9.25 8.125 L 6.5625 5.765625 Z M 13.890625 -9.203125 "/></g></g></g><g fill="#ffffff" fill-opacity="1"><g transform="translate(102.869465, 315.335156)"><g><path d="M 12.59375 -18.3125 L 21.578125 -12.328125 L 19.8125 -9.6875 L 16.78125 -11.703125 L 6.21875 4.140625 L 3.296875 2.203125 L 13.859375 -13.640625 L 10.828125 -15.671875 Z M 12.59375 -18.3125 "/></g></g></g><g fill="#ffffff" fill-opacity="1"><g transform="translate(118.180671, 325.069216)"><g><path d="M 7.6875 3.796875 C 7.71875 3.640625 7.738281 3.492188 7.75 3.359375 C 7.769531 3.222656 7.804688 3.066406 7.859375 2.890625 C 7.910156 2.710938 7.992188 2.488281 8.109375 2.21875 C 8.234375 1.945312 8.394531 1.609375 8.59375 1.203125 L 10.140625 -1.921875 C 10.597656 -2.859375 10.757812 -3.59375 10.625 -4.125 C 10.5 -4.664062 10.078125 -5.113281 9.359375 -5.46875 L 8.265625 -6 L 4.265625 2.109375 L 1.140625 0.5625 L 10.96875 -19.359375 L 15.703125 -17.03125 C 17.328125 -16.226562 18.320312 -15.265625 18.6875 -14.140625 C 19.050781 -13.023438 18.851562 -11.695312 18.09375 -10.15625 L 17.3125 -8.578125 C 16.300781 -6.535156 14.957031 -5.53125 13.28125 -5.5625 C 13.90625 -4.84375 14.179688 -4.046875 14.109375 -3.171875 C 14.046875 -2.296875 13.753906 -1.335938 13.234375 -0.296875 L 11.734375 2.78125 C 11.484375 3.269531 11.285156 3.707031 11.140625 4.09375 C 11.003906 4.476562 10.914062 4.898438 10.875 5.359375 Z M 12.703125 -14.96875 L 9.671875 -8.84375 L 10.90625 -8.25 C 11.488281 -7.957031 12.019531 -7.878906 12.5 -8.015625 C 12.988281 -8.160156 13.429688 -8.632812 13.828125 -9.4375 L 14.796875 -11.390625 C 15.148438 -12.109375 15.273438 -12.691406 15.171875 -13.140625 C 15.078125 -13.597656 14.753906 -13.960938 14.203125 -14.234375 Z M 12.703125 -14.96875 "/></g></g></g><g fill="#ffffff" fill-opacity="1"><g transform="translate(135.868883, 333.292324)"><g><path d="M 5.875 -3.40625 C 5.625 -2.644531 5.601562 -2.054688 5.8125 -1.640625 C 6.019531 -1.222656 6.378906 -0.929688 6.890625 -0.765625 C 7.410156 -0.585938 7.878906 -0.601562 8.296875 -0.8125 C 8.710938 -1.019531 9.046875 -1.503906 9.296875 -2.265625 L 13.140625 -13.640625 C 13.390625 -14.398438 13.410156 -14.984375 13.203125 -15.390625 C 12.992188 -15.804688 12.628906 -16.101562 12.109375 -16.28125 C 11.597656 -16.445312 11.132812 -16.425781 10.71875 -16.21875 C 10.300781 -16.019531 9.96875 -15.539062 9.71875 -14.78125 Z M 6.328125 -15.6875 C 6.898438 -17.394531 7.769531 -18.5625 8.9375 -19.1875 C 10.113281 -19.8125 11.507812 -19.851562 13.125 -19.3125 C 14.75 -18.757812 15.835938 -17.878906 16.390625 -16.671875 C 16.953125 -15.460938 16.945312 -14.003906 16.375 -12.296875 L 12.6875 -1.34375 C 12.113281 0.351562 11.238281 1.507812 10.0625 2.125 C 8.894531 2.75 7.5 2.785156 5.875 2.234375 C 4.257812 1.691406 3.171875 0.820312 2.609375 -0.375 C 2.054688 -1.582031 2.066406 -3.035156 2.640625 -4.734375 Z M 6.328125 -15.6875 "/></g></g></g><g fill="#ffffff" fill-opacity="1"><g transform="translate(154.26908, 338.98719)"><g><path d="M 5.609375 -21.53125 L 9.046875 -20.84375 L 5.296875 -2.171875 L 10.9375 -1.03125 L 10.3125 2.078125 L 1.234375 0.25 Z M 5.609375 -21.53125 "/></g></g></g><g fill="#ffffff" fill-opacity="1"><g transform="translate(171.49243, 342.058186)"><g><path d="M 5.71875 -12.46875 L 10.5 -12.109375 L 10.265625 -8.9375 L 5.484375 -9.296875 L 4.984375 -2.796875 L 11 -2.34375 L 10.765625 0.8125 L 1.265625 0.09375 L 2.9375 -22.0625 L 12.4375 -21.34375 L 12.203125 -18.1875 L 6.1875 -18.640625 Z M 5.71875 -12.46875 "/></g></g></g><g fill="#ffffff" fill-opacity="1"><g transform="translate(189.660697, 342.92089)"><g/></g></g><g fill="#ffffff" fill-opacity="1"><g transform="translate(201.126414, 342.479024)"><g><path d="M -1.703125 -22.1875 L 3.78125 -22.921875 C 5.53125 -23.148438 6.890625 -22.863281 7.859375 -22.0625 C 8.828125 -21.257812 9.429688 -19.960938 9.671875 -18.171875 L 11.15625 -7.046875 C 11.394531 -5.253906 11.15625 -3.835938 10.4375 -2.796875 C 9.71875 -1.765625 8.484375 -1.132812 6.734375 -0.90625 L 1.25 -0.171875 Z M 2.1875 -19.515625 L 4.296875 -3.78125 L 6.25 -4.03125 C 6.800781 -4.101562 7.210938 -4.316406 7.484375 -4.671875 C 7.753906 -5.035156 7.835938 -5.613281 7.734375 -6.40625 L 6.1875 -17.859375 C 6.082031 -18.660156 5.851562 -19.195312 5.5 -19.46875 C 5.144531 -19.738281 4.691406 -19.835938 4.140625 -19.765625 Z M 2.1875 -19.515625 "/></g></g></g><g fill="#ffffff" fill-opacity="1"><g transform="translate(220.55815, 339.386317)"><g><path d="M 1.234375 -13.65625 L 5.875 -14.90625 L 6.703125 -11.84375 L 2.0625 -10.59375 L 3.765625 -4.3125 L 9.59375 -5.875 L 10.421875 -2.8125 L 1.21875 -0.328125 L -4.578125 -21.78125 L 4.625 -24.265625 L 5.453125 -21.203125 L -0.375 -19.640625 Z M 1.234375 -13.65625 "/></g></g></g><g fill="#ffffff" fill-opacity="1"><g transform="translate(237.977201, 334.15071)"><g/></g></g><g fill="#ffffff" fill-opacity="1"><g transform="translate(248.609076, 329.909239)"><g><path d="M -4.328125 -22.703125 C -2.765625 -23.503906 -1.382812 -23.6875 -0.1875 -23.25 C 1 -22.8125 2 -21.785156 2.8125 -20.171875 L 4.109375 -17.59375 C 4.929688 -15.988281 5.164062 -14.578125 4.8125 -13.359375 C 4.46875 -12.140625 3.515625 -11.128906 1.953125 -10.328125 L 0.484375 -9.59375 L 4.25 -2.15625 L 1.125 -0.578125 L -8.921875 -20.390625 Z M -4.359375 -19.140625 L -0.96875 -12.4375 L 0.5 -13.171875 C 0.988281 -13.421875 1.300781 -13.742188 1.4375 -14.140625 C 1.570312 -14.546875 1.457031 -15.109375 1.09375 -15.828125 L -0.421875 -18.796875 C -0.773438 -19.503906 -1.148438 -19.921875 -1.546875 -20.046875 C -1.953125 -20.179688 -2.398438 -20.125 -2.890625 -19.875 Z M -4.359375 -19.140625 "/></g></g></g><g fill="#ffffff" fill-opacity="1"><g transform="translate(265.056629, 321.080511)"><g><path d="M -3.28125 -13.3125 L 0.6875 -16.015625 L 2.46875 -13.390625 L -1.5 -10.6875 L 2.15625 -5.296875 L 7.15625 -8.6875 L 8.9375 -6.0625 L 1.046875 -0.71875 L -11.4375 -19.09375 L -3.546875 -24.4375 L -1.765625 -21.8125 L -6.765625 -18.421875 Z M -3.28125 -13.3125 "/></g></g></g><g fill="#ffffff" fill-opacity="1"><g transform="translate(280.033739, 310.40977)"><g><path d="M 4.546875 0.15625 L 6.0625 -1.1875 L 6.28125 -0.953125 C 6.4375 -0.765625 6.585938 -0.691406 6.734375 -0.734375 C 6.890625 -0.773438 7.03125 -0.851562 7.15625 -0.96875 C 7.570312 -1.332031 7.597656 -1.722656 7.234375 -2.140625 C 6.835938 -2.578125 6.351562 -2.539062 5.78125 -2.03125 L 5.515625 -1.796875 L 4.109375 -3.390625 C 2.921875 -2.523438 1.742188 -2.207031 0.578125 -2.4375 C -0.578125 -2.675781 -1.703125 -3.410156 -2.796875 -4.640625 L -10.46875 -13.296875 C -11.664062 -14.648438 -12.25 -15.976562 -12.21875 -17.28125 C -12.195312 -18.582031 -11.550781 -19.800781 -10.28125 -20.9375 C -8.988281 -22.070312 -7.695312 -22.566406 -6.40625 -22.421875 C -5.113281 -22.285156 -3.867188 -21.539062 -2.671875 -20.1875 L -1.234375 -18.578125 L -3.703125 -16.40625 L -5.28125 -18.1875 C -5.8125 -18.78125 -6.304688 -19.085938 -6.765625 -19.109375 C -7.234375 -19.140625 -7.675781 -18.972656 -8.09375 -18.609375 C -8.5 -18.242188 -8.710938 -17.828125 -8.734375 -17.359375 C -8.765625 -16.898438 -8.515625 -16.375 -7.984375 -15.78125 L -0.03125 -6.796875 C 0.5 -6.191406 0.992188 -5.878906 1.453125 -5.859375 C 1.910156 -5.835938 2.34375 -6.007812 2.75 -6.375 C 3.164062 -6.738281 3.390625 -7.148438 3.421875 -7.609375 C 3.453125 -8.066406 3.203125 -8.597656 2.671875 -9.203125 L 0.5625 -11.578125 L 3.03125 -13.75 L 5 -11.53125 C 6.09375 -10.300781 6.675781 -9.078125 6.75 -7.859375 C 6.820312 -6.648438 6.347656 -5.507812 5.328125 -4.4375 L 6 -3.671875 C 6.457031 -4.078125 6.925781 -4.273438 7.40625 -4.265625 C 7.894531 -4.265625 8.320312 -4.054688 8.6875 -3.640625 C 9.320312 -2.921875 9.554688 -2.222656 9.390625 -1.546875 C 9.222656 -0.878906 8.847656 -0.285156 8.265625 0.234375 C 7.722656 0.710938 7.125 1 6.46875 1.09375 C 5.820312 1.1875 5.253906 0.953125 4.765625 0.390625 Z M 4.546875 0.15625 "/></g></g></g><g fill="#ffffff" fill-opacity="1"><g transform="translate(293.96446, 297.497023)"><g><path d="M 8.21875 -9.515625 L 5.921875 -6.84375 L 2.484375 -9.03125 L -0.328125 -5.78125 L 2.328125 -2.6875 L 0.21875 -0.265625 L -14.265625 -17.484375 L -10.921875 -21.359375 Z M -2.3125 -8.09375 L -0.125 -10.640625 L -9.71875 -16.703125 Z M -2.3125 -8.09375 "/></g></g></g><g fill="#ffffff" fill-opacity="1"><g transform="translate(306.448667, 282.326273)"><g><path d="M -13.671875 -9.953125 C -15.171875 -10.941406 -16.085938 -12.054688 -16.421875 -13.296875 C -16.765625 -14.546875 -16.460938 -15.890625 -15.515625 -17.328125 C -14.578125 -18.765625 -13.46875 -19.570312 -12.1875 -19.75 C -10.914062 -19.9375 -9.53125 -19.535156 -8.03125 -18.546875 L -7.3125 -18.078125 L -9.125 -15.328125 L -10.015625 -15.921875 C -10.691406 -16.359375 -11.25 -16.539062 -11.6875 -16.46875 C -12.125 -16.394531 -12.492188 -16.125 -12.796875 -15.65625 C -13.097656 -15.195312 -13.195312 -14.75 -13.09375 -14.3125 C -12.988281 -13.875 -12.597656 -13.4375 -11.921875 -13 C -11.285156 -12.582031 -10.632812 -12.351562 -9.96875 -12.3125 C -9.300781 -12.28125 -8.609375 -12.332031 -7.890625 -12.46875 C -7.179688 -12.613281 -6.445312 -12.785156 -5.6875 -12.984375 C -4.9375 -13.191406 -4.164062 -13.335938 -3.375 -13.421875 C -2.582031 -13.515625 -1.765625 -13.484375 -0.921875 -13.328125 C -0.0859375 -13.179688 0.769531 -12.816406 1.65625 -12.234375 C 3.15625 -11.253906 4.066406 -10.132812 4.390625 -8.875 C 4.710938 -7.613281 4.40625 -6.265625 3.46875 -4.828125 C 2.519531 -3.390625 1.40625 -2.566406 0.125 -2.359375 C -1.15625 -2.160156 -2.546875 -2.550781 -4.046875 -3.53125 L -5.328125 -4.375 L -3.515625 -7.140625 L -2.046875 -6.1875 C -1.378906 -5.738281 -0.820312 -5.5625 -0.375 -5.65625 C 0.0625 -5.757812 0.429688 -6.046875 0.734375 -6.515625 C 1.035156 -6.972656 1.144531 -7.425781 1.0625 -7.875 C 0.976562 -8.320312 0.601562 -8.769531 -0.0625 -9.21875 C -0.695312 -9.632812 -1.351562 -9.859375 -2.03125 -9.890625 C -2.707031 -9.921875 -3.398438 -9.863281 -4.109375 -9.71875 C -4.828125 -9.582031 -5.5625 -9.410156 -6.3125 -9.203125 C -7.0625 -9.003906 -7.832031 -8.863281 -8.625 -8.78125 C -9.414062 -8.695312 -10.226562 -8.722656 -11.0625 -8.859375 C -11.90625 -9.003906 -12.773438 -9.367188 -13.671875 -9.953125 Z M -13.671875 -9.953125 "/></g></g></g></svg>